<?xml version="1.0" ?><svg style="enable-background:new 0 0 1080 1080;" version="1.1" viewBox="0 0 1080 1080" xml:space="preserve" xmlns="http://www.w3.org/2000/svg" xmlns:xlink="http://www.w3.org/1999/xlink"><g id="_x30_1_Net"><g><path d="M142.71,671.163c0,11.604-1.92,19.327-5.761,23.168    c-3.841,3.841-10.828,5.761-20.962,5.761c-9.807,0-16.589-1.88-20.349-5.639C91.88,690.695,90,683.176,90,671.899    c0-11.604,1.92-19.327,5.761-23.168c3.841-3.841,10.828-5.761,20.962-5.761c9.807,0,16.589,1.88,20.349,5.639    C140.831,652.367,142.71,659.886,142.71,671.163z" style="fill:none;stroke:#2B4B9B;stroke-width:13;"/><path d="M461.67,680.479c0,3.269-0.552,6.047-1.655,8.336    c-1.083,2.288-2.533,4.168-4.311,5.639c-1.777,1.471-3.759,2.533-5.945,3.187c-2.206,0.654-4.393,0.981-6.599,0.981h-13.934    c-4.413,0-8.254-0.449-11.543-1.348c-3.31-0.899-6.436-2.533-9.378-4.903c-2.962-2.37-5.925-5.598-8.887-9.684    c-2.962-4.086-6.088-9.316-9.418-15.691l-96.779-180.441c-5.046-9.316-10.154-19.082-15.302-29.297    c-5.128-10.215-9.909-20.144-14.342-29.788h-0.49c0.327,11.768,0.572,23.781,0.735,36.039c0.163,12.258,0.245,24.435,0.245,36.53    v191.474c0,1.144-0.347,2.247-1.042,3.31c-0.674,1.062-1.839,1.88-3.494,2.452c-1.634,0.572-3.78,1.062-6.456,1.471    c-2.676,0.409-6.088,0.613-10.215,0.613c-4.147,0-7.559-0.204-10.236-0.613c-2.676-0.409-4.781-0.899-6.333-1.471    c-1.553-0.572-2.676-1.389-3.351-2.452c-0.695-1.062-1.042-2.166-1.042-3.31V398.785c0-6.538,1.859-11.196,5.557-13.974    c3.718-2.779,7.764-4.168,12.156-4.168h20.757c4.883,0,8.969,0.409,12.258,1.226c3.289,0.817,6.252,2.166,8.867,4.045    c2.615,1.88,5.148,4.495,7.58,7.845c2.452,3.351,5.026,7.559,7.702,12.626l74.408,139.254c4.576,8.499,9.01,16.794,13.259,24.884    c4.27,8.09,8.376,16.058,12.32,23.904c3.964,7.845,7.866,15.568,11.747,23.168c3.861,7.6,7.682,15.241,11.482,22.923h0.245    c-0.327-12.912-0.531-26.355-0.613-40.33c-0.082-13.974-0.123-27.418-0.123-40.33V387.753c0-1.144,0.347-2.206,1.042-3.187    c0.674-0.981,1.839-1.839,3.473-2.574c1.655-0.735,3.8-1.267,6.476-1.594c2.676-0.327,6.17-0.49,10.481-0.49    c3.8,0,7.069,0.163,9.827,0.49c2.758,0.327,4.924,0.858,6.476,1.594c1.553,0.736,2.676,1.594,3.351,2.574    c0.695,0.981,1.042,2.043,1.042,3.187V680.479z" style="fill:none;stroke:#2B4B9B;stroke-width:13;"/><path d="M722.525,680.479c0,2.942-0.163,5.516-0.49,7.723    c-0.327,2.206-0.899,4.045-1.716,5.516s-1.757,2.533-2.819,3.187c-1.062,0.654-2.247,0.981-3.555,0.981H561.697    c-3.759,0-7.314-1.267-10.665-3.8c-3.351-2.533-5.026-6.987-5.026-13.361v-282.92c0-6.374,1.675-10.828,5.026-13.361    s6.905-3.8,10.665-3.8h150.531c1.308,0,2.492,0.327,3.555,0.981s1.92,1.716,2.574,3.187c0.654,1.471,1.185,3.31,1.594,5.516    c0.409,2.206,0.613,4.944,0.613,8.213c0,2.942-0.204,5.516-0.613,7.723c-0.409,2.206-0.94,4.004-1.594,5.394    c-0.654,1.389-1.512,2.411-2.574,3.065c-1.062,0.654-2.247,0.981-3.555,0.981H588.175v99.537h106.402    c1.308,0,2.492,0.368,3.555,1.103c1.062,0.735,1.961,1.757,2.697,3.065c0.735,1.308,1.267,3.105,1.594,5.394s0.49,4.985,0.49,8.09    c0,2.942-0.163,5.475-0.49,7.6c-0.327,2.125-0.858,3.841-1.594,5.148c-0.736,1.308-1.634,2.247-2.697,2.819    c-1.062,0.572-2.247,0.858-3.555,0.858H588.175v113.511h125.77c1.307,0,2.492,0.327,3.555,0.981s2.002,1.675,2.819,3.065    c0.817,1.389,1.389,3.187,1.716,5.394C722.362,674.473,722.525,677.211,722.525,680.479z" style="fill:none;stroke:#2B4B9B;stroke-width:13;"/><path d="M990,398.785c0,3.105-0.163,5.802-0.49,8.09    c-0.327,2.288-0.858,4.127-1.594,5.516c-0.735,1.389-1.634,2.411-2.697,3.065c-1.062,0.654-2.247,0.981-3.555,0.981h-89.24    v275.075c0,1.308-0.327,2.452-0.981,3.432c-0.654,0.981-1.798,1.757-3.432,2.329c-1.634,0.572-3.8,1.062-6.497,1.471    c-2.697,0.409-6.088,0.613-10.174,0.613c-3.923,0-7.273-0.204-10.052-0.613c-2.779-0.409-4.985-0.899-6.619-1.471    c-1.634-0.572-2.779-1.348-3.432-2.329c-0.654-0.981-0.981-2.125-0.981-3.432V416.437h-89.24c-1.308,0-2.492-0.327-3.555-0.981    c-1.062-0.654-1.92-1.675-2.574-3.065c-0.654-1.389-1.185-3.228-1.594-5.516c-0.409-2.288-0.613-4.985-0.613-8.09    c0-3.105,0.204-5.843,0.613-8.213c0.409-2.37,0.94-4.29,1.594-5.761c0.654-1.471,1.512-2.533,2.574-3.187s2.247-0.981,3.555-0.981    h220.648c1.308,0,2.493,0.327,3.555,0.981s1.961,1.716,2.697,3.187c0.736,1.471,1.267,3.391,1.594,5.761    C989.837,392.942,990,395.68,990,398.785z" style="fill:none;stroke:#2B4B9B;stroke-width:13;"/></g></g><g id="_x30_2_Android"/><g id="Layer_3"/><g id="Layer_4"/><g id="Layer_5"/><g id="Layer_6"/><g id="Layer_7"/><g id="Layer_8"/><g id="Layer_9"/><g id="Layer_10"/><g id="Layer_11"/><g id="Layer_12"/><g id="Layer_13"/><g id="Layer_14"/><g id="Layer_15"/><g id="Layer_16"/><g id="Layer_17"/><g id="Layer_18"/><g id="Layer_19"/><g id="Layer_20"/><g id="Layer_21"/></svg>